<svg xmlns="http://www.w3.org/2000/svg" width="45" height="45" viewBox="0 0 45 45">
  <g id="Group_1300" data-name="Group 1300" transform="translate(-760 -553)">
    <g id="Path_1377" data-name="Path 1377" transform="translate(760 553)" fill="#fff">
      <path d="M 22.5 44.5 C 19.52980041503906 44.5 16.64871025085449 43.91838836669922 13.93675994873047 42.77133941650391 C 11.31707000732422 41.66329956054688 8.964249610900879 40.07695007324219 6.943649768829346 38.05635070800781 C 4.923049926757813 36.03575134277344 3.336699962615967 33.68292999267578 2.228660106658936 31.06324005126953 C 1.081609964370728 28.35128974914551 0.5 25.47019958496094 0.5 22.5 C 0.5 19.52980041503906 1.081609964370728 16.64871025085449 2.228660106658936 13.93675994873047 C 3.336699962615967 11.31707000732422 4.923049926757813 8.964249610900879 6.943649768829346 6.943649768829346 C 8.964249610900879 4.923049926757813 11.31707000732422 3.336699962615967 13.93675994873047 2.228660106658936 C 16.64871025085449 1.081609964370728 19.52980041503906 0.5 22.5 0.5 C 25.47019958496094 0.5 28.35128974914551 1.081609964370728 31.06324005126953 2.228660106658936 C 33.68292999267578 3.336699962615967 36.03575134277344 4.923049926757813 38.05635070800781 6.943649768829346 C 40.07695007324219 8.964249610900879 41.66329956054688 11.31707000732422 42.77133941650391 13.93675994873047 C 43.91838836669922 16.64871025085449 44.5 19.52980041503906 44.5 22.5 C 44.5 25.47019958496094 43.91838836669922 28.35128974914551 42.77133941650391 31.06324005126953 C 41.66329956054688 33.68292999267578 40.07695007324219 36.03575134277344 38.05635070800781 38.05635070800781 C 36.03575134277344 40.07695007324219 33.68292999267578 41.66329956054688 31.06324005126953 42.77133941650391 C 28.35128974914551 43.91838836669922 25.47019958496094 44.5 22.5 44.5 Z" stroke="none"/>
      <path d="M 22.5 1 C 19.59708023071289 1 16.78152084350586 1.568321228027344 14.13154029846191 2.689170837402344 C 11.57144927978516 3.771991729736328 9.272048950195313 5.322360992431641 7.297199249267578 7.297199249267578 C 5.322360992431641 9.272048950195313 3.771991729736328 11.57144927978516 2.689170837402344 14.13154029846191 C 1.568321228027344 16.78152084350586 1 19.59708023071289 1 22.5 C 1 25.40291976928711 1.568321228027344 28.21847915649414 2.689170837402344 30.86845970153809 C 3.771991729736328 33.42855072021484 5.322360992431641 35.72795104980469 7.297199249267578 37.70280075073242 C 9.272048950195313 39.67763900756836 11.57144927978516 41.22800827026367 14.13154029846191 42.31082916259766 C 16.78152084350586 43.43167877197266 19.59708023071289 44 22.5 44 C 25.40291976928711 44 28.21847915649414 43.43167877197266 30.86845970153809 42.31082916259766 C 33.42855072021484 41.22800827026367 35.72795104980469 39.67763900756836 37.70280075073242 37.70280075073242 C 39.67763900756836 35.72795104980469 41.22800827026367 33.42855072021484 42.31082916259766 30.86845970153809 C 43.43167877197266 28.21847915649414 44 25.40291976928711 44 22.5 C 44 19.59708023071289 43.43167877197266 16.78152084350586 42.31082916259766 14.13154029846191 C 41.22800827026367 11.57144927978516 39.67763900756836 9.272048950195313 37.70280075073242 7.297199249267578 C 35.72795104980469 5.322360992431641 33.42855072021484 3.771991729736328 30.86845970153809 2.689170837402344 C 28.21847915649414 1.568321228027344 25.40291976928711 1 22.5 1 M 22.5 0 C 34.92641067504883 0 45 10.07358932495117 45 22.5 C 45 34.92641067504883 34.92641067504883 45 22.5 45 C 10.07358932495117 45 0 34.92641067504883 0 22.5 C 0 10.07358932495117 10.07358932495117 0 22.5 0 Z" stroke="none" fill="#ecedf2"/>
    </g>
    <path id="heart" d="M10,17.794a1.173,1.173,0,0,1-.773-.291c-.808-.706-1.587-1.37-2.274-1.956l0,0a42.294,42.294,0,0,1-4.966-4.661A7.444,7.444,0,0,1,0,6.011,6.251,6.251,0,0,1,1.587,1.741,5.378,5.378,0,0,1,5.587,0,5.031,5.031,0,0,1,8.73,1.085,6.429,6.429,0,0,1,10,2.411a6.43,6.43,0,0,1,1.271-1.327A5.031,5.031,0,0,1,14.413,0a5.378,5.378,0,0,1,4,1.741A6.251,6.251,0,0,1,20,6.011a7.443,7.443,0,0,1-1.983,4.873,42.29,42.29,0,0,1-4.965,4.661c-.688.587-1.469,1.252-2.278,1.96a1.174,1.174,0,0,1-.773.29ZM5.587,1.172A4.219,4.219,0,0,0,2.448,2.535,5.085,5.085,0,0,0,1.171,6.011a6.263,6.263,0,0,0,1.714,4.125,41.62,41.62,0,0,0,4.823,4.517l0,0c.69.588,1.472,1.254,2.286,1.966.819-.713,1.6-1.381,2.293-1.969a41.631,41.631,0,0,0,4.823-4.516,6.264,6.264,0,0,0,1.714-4.125,5.085,5.085,0,0,0-1.276-3.475,4.219,4.219,0,0,0-3.139-1.364,3.886,3.886,0,0,0-2.426.84,5.685,5.685,0,0,0-1.352,1.564.74.74,0,0,1-1.27,0A5.68,5.68,0,0,0,8.013,2.012a3.885,3.885,0,0,0-2.426-.84Zm0,0" transform="translate(772.5 567.5)" fill="#696977" stroke="#696977" stroke-width="0.5"/>
  </g>
</svg>
