<svg xmlns="http://www.w3.org/2000/svg" width="16.215" height="14.482" viewBox="0 0 16.215 14.482">
  <path id="heart" d="M7.858,13.982a.922.922,0,0,1-.608-.228C6.615,13.2,6,12.677,5.463,12.217l0,0a33.234,33.234,0,0,1-3.9-3.662A5.849,5.849,0,0,1,0,4.723,4.912,4.912,0,0,1,1.247,1.368,4.226,4.226,0,0,1,4.39,0,3.953,3.953,0,0,1,6.86.852a5.052,5.052,0,0,1,1,1.042,5.052,5.052,0,0,1,1-1.042A3.953,3.953,0,0,1,11.325,0a4.226,4.226,0,0,1,3.144,1.368,4.912,4.912,0,0,1,1.247,3.355,5.849,5.849,0,0,1-1.559,3.829,33.23,33.23,0,0,1-3.9,3.662c-.541.461-1.154.983-1.79,1.54a.922.922,0,0,1-.607.228ZM4.39.921A3.315,3.315,0,0,0,1.923,1.992a4,4,0,0,0-1,2.731A4.922,4.922,0,0,0,2.267,7.965a32.7,32.7,0,0,0,3.79,3.549l0,0c.542.462,1.157.986,1.8,1.545.643-.56,1.259-1.085,1.8-1.548a32.712,32.712,0,0,0,3.79-3.549A4.922,4.922,0,0,0,14.8,4.723a4,4,0,0,0-1-2.731A3.315,3.315,0,0,0,11.325.921a3.053,3.053,0,0,0-1.906.66A4.467,4.467,0,0,0,8.357,2.81a.581.581,0,0,1-1,0A4.463,4.463,0,0,0,6.3,1.581,3.053,3.053,0,0,0,4.39.921Zm0,0" transform="translate(0.25 0.25)" fill="#2e2d37" stroke="#2e2d37" stroke-width="0.5"/>
</svg>
