<svg xmlns="http://www.w3.org/2000/svg" width="16.259" height="13.937" viewBox="0 0 16.259 13.937">
  <path id="Shape" d="M26.344,16.2a3.492,3.492,0,0,0,1.466-1.946,6.469,6.469,0,0,1-2.119.854A3.247,3.247,0,0,0,23.257,14a3.43,3.43,0,0,0-3.335,3.518,3.683,3.683,0,0,0,.085.8,9.316,9.316,0,0,1-6.875-3.676,3.658,3.658,0,0,0-.451,1.769,3.574,3.574,0,0,0,1.484,2.929,3.217,3.217,0,0,1-1.512-.44v.043a3.476,3.476,0,0,0,2.677,3.449,3.186,3.186,0,0,1-1.507.061A3.365,3.365,0,0,0,16.939,24.9,6.476,6.476,0,0,1,12.8,26.4a6.3,6.3,0,0,1-.8-.048,9.1,9.1,0,0,0,5.113,1.58c6.136,0,9.49-5.361,9.49-10.01,0-.153,0-.3-.009-.455a6.972,6.972,0,0,0,1.664-1.822A6.393,6.393,0,0,1,26.344,16.2Z" transform="translate(-12 -14)" fill="#fff" fill-rule="evenodd"/>
</svg>
